{"title":"Skepta - Oynama Sikdim Sikdim HD 720p","uid":6413826,"size":43509363,"categoryP":"video","categoryS":"music_videos","magnet":"?xt=urn:btih:7a38ea23cea409400a4b3a2ee8ae795a9772f092&amp;dn=Skepta+-+Oynama+Sikdim+Sikdim+HD+720p&amp;tr=udp%3A%2F%2Ftracker.openbittorrent.com%3A80&amp;tr=udp%3A%2F%2Fopen.demonii.com%3A1337&amp;tr=udp%3A%2F%2Ftracker.coppersurfer.tk%3A6969&amp;tr=udp%3A%2F%2Fexodus.desync.com%3A6969","seeders":0,"leechers":1,"uploader":"x.zone","files":-1,"time":1306094664,"description":"===================== SKEPTA - OYNAMA SIKDUM =====================================\n\nFormat                           : Matroska\nFile size                        : 41.5 MiB\nDuration                         : 2mn 29s\nOverall bit rate                 : 2 329 Kbps\nEncoded date                     : UTC 2010-11-28 12:14:52\nWriting application              : mkvmerge v2.6.0 ('Kelly watch the Stars') built on Mar 24 2009 15:23:17\nWriting library                  : libebml v0.7.7 + libmatroska v0.8.1\n\nVideo\nID                               : 1\nFormat                           : AVC\nFormat/Info                      : Advanced Video Codec\nFormat profile                   : &lt;a class=&quot;__cf_email__&quot; href=&quot;/cdn-cgi/l/email-protection&quot; data-cfemail=&quot;7038191718303c435e41&quot;&gt;[email&amp;#160;protected]&lt;/a&gt;&lt;script cf-hash='f9e31' type=&quot;text/javascript&quot;&gt;\n/* &lt;![CDATA[ */!function(){try{var t=&quot;currentScript&quot;in document?document.currentScript:function(){for(var t=document.getElementsByTagName(&quot;script&quot;),e=t.length;e--;)if(t[e].getAttribute(&quot;cf-hash&quot;))return t[e]}();if(t&amp;&amp;t.previousSibling){var e,r,n,i,c=t.previousSibling,a=c.getAttribute(&quot;data-cfemail&quot;);if(a){for(e=&quot;&quot;,r=parseInt(a.substr(0,2),16),n=2;a.length-n;n+=2)i=parseInt(a.substr(n,2),16)^r,e+=String.fromCharCode(i);e=document.createTextNode(e),c.parentNode.replaceChild(e,c)}}}catch(u){}}();/* ]]&gt; */&lt;/script&gt;\nFormat settings, CABAC           : Yes\nFormat settings, ReFrames        : 1 frame\nMuxing mode                      : Container profile=&lt;a class=&quot;__cf_email__&quot; href=&quot;/cdn-cgi/l/email-protection&quot; data-cfemail=&quot;297c474247465e47691a0718&quot;&gt;[email&amp;#160;protected]&lt;/a&gt;&lt;script cf-hash='f9e31' type=&quot;text/javascript&quot;&gt;\n/* &lt;![CDATA[ */!function(){try{var t=&quot;currentScript&quot;in document?document.currentScript:function(){for(var t=document.getElementsByTagName(&quot;script&quot;),e=t.length;e--;)if(t[e].getAttribute(&quot;cf-hash&quot;))return t[e]}();if(t&amp;&amp;t.previousSibling){var e,r,n,i,c=t.previousSibling,a=c.getAttribute(&quot;data-cfemail&quot;);if(a){for(e=&quot;&quot;,r=parseInt(a.substr(0,2),16),n=2;a.length-n;n+=2)i=parseInt(a.substr(n,2),16)^r,e+=String.fromCharCode(i);e=document.createTextNode(e),c.parentNode.replaceChild(e,c)}}}catch(u){}}();/* ]]&gt; */&lt;/script&gt;\nCodec ID                         : V_MPEG4/ISO/AVC\nDuration                         : 2mn 29s\nBit rate                         : 1 962 Kbps\nWidth                            : 1 280 pixels\nHeight                           : 720 pixels\nDisplay aspect ratio             : 16:9\nFrame rate                       : 25.000 fps\nColor space                      : YUV\nChroma subsampling               : 4:2:0\nBit depth                        : 8 bits\nScan type                        : Progressive\nBits/(Pixel*Frame)               : 0.085\nStream size                      : 35.0 MiB (84%)\n\nAudio\nID                               : 2\nFormat                           : AC-3\nFormat/Info                      : Audio Coding 3\nMode extension                   : CM (complete main)\nCodec ID                         : A_AC3\nDuration                         : 2mn 29s\nBit rate mode                    : Constant\nBit rate                         : 320 Kbps\nChannel(s)                       : 2 channels\nChannel positions                : Front: L R\nSampling rate                    : 48.0 KHz\nStream size                      : 5.70 MiB (14%)\n\n=========================(((((SCREEN SHOTS))))))))==============================\n                        &lt;a href=&quot; http://bayimg.com/kAIkOAaDD&quot; rel=&quot;nofollow&quot; target=&quot;_NEW&quot;&gt; http://bayimg.com/kAIkOAaDD&lt;/a&gt;\n================================================================================\n","torrent":{"xt":"urn:btih:7a38ea23cea409400a4b3a2ee8ae795a9772f092","amp;dn":"Skepta+-+Oynama+Sikdim+Sikdim+HD+720p","amp;tr":["udp%3A%2F%2Ftracker.openbittorrent.com%3A80","udp%3A%2F%2Fopen.demonii.com%3A1337","udp%3A%2F%2Ftracker.coppersurfer.tk%3A6969","udp%3A%2F%2Fexodus.desync.com%3A6969"],"infoHash":"7a38ea23cea409400a4b3a2ee8ae795a9772f092","infoHashBuffer":{"type":"Buffer","data":[122,56,234,35,206,164,9,64,10,75,58,46,232,174,121,90,151,114,240,146]},"announce":[],"urlList":[]}}